<svg xmlns="http://www.w3.org/2000/svg" version="1.1" xmlns:xlink="http://www.w3.org/1999/xlink" xmlns:svgjs="http://svgjs.com/svgjs" width="1000" height="1000"><rect width="1000" height="1000" rx="300" ry="300" fill="#757575"></rect><g transform="matrix(13.905467296009578,0,0,13.905467296009578,29.670323729781558,-0.0001585456822681408)"><svg xmlns="http://www.w3.org/2000/svg" version="1.1" xmlns:xlink="http://www.w3.org/1999/xlink" xmlns:svgjs="http://svgjs.com/svgjs" width="67.64671" height="71.91416"><svg version="1.1" xmlns="http://www.w3.org/2000/svg" xmlns:xlink="http://www.w3.org/1999/xlink" width="67.64671" height="71.91416" viewBox="0,0,67.64671,71.91416"><g transform="translate(-197.47264,-131.09903)"><g data-paper-data="{&quot;isPaintingLayer&quot;:true}" fill-rule="nonzero" stroke="none" stroke-width="0.5" stroke-linecap="butt" stroke-linejoin="miter" stroke-miterlimit="10" stroke-dasharray="" stroke-dashoffset="0" style="mix-blend-mode: normal"><path d="M246.72562,202.7308c-2.26428,1.05974 -3.32402,-1.20454 -3.32402,-1.20454l-0.19945,-0.60224c-4.04861,-4.99253 -5.98173,-9.9224 -6.06426,-16.3988c-0.06884,-5.40271 2.1283,-9.98175 0.91228,-15.42818c-0.54746,-1.46421 -1.19293,-2.92068 -2.10298,-4.19168c-6.07842,-8.48938 -18.23975,-2.63534 -26.80877,-4.05925c-5.62826,-0.93524 -7.79497,-6.18217 -11.06097,-10.18632c0,0 -1.57727,-1.93965 0.36238,-3.51691c1.93965,-1.57727 3.51691,0.36238 3.51691,0.36238c1.90089,2.34408 3.67828,6.41175 6.30791,8.01886c2.79734,1.7096 8.97407,0.13523 12.02557,-0.01612c2.79418,-0.13859 6.40803,-0.46952 9.16395,-0.15023c6.76037,0.78322 11.15691,6.44282 13.38718,12.30941c1.77682,7.9974 -2.56501,16.20449 0.24608,23.99321c0.82699,2.29136 2.4829,4.25648 3.994,6.1091l0.84871,1.63729c0,0 1.05974,2.26428 -1.20454,3.32402z" fill="#ff0000"></path><path d="M223.63498,154.99847c-0.80753,-0.99307 -0.72703,-2.41869 0.14244,-3.31544c2.16655,-5.12564 -2.66174,-12.61516 -5.77938,-16.44909c0,0 -1.57727,-1.93965 0.36238,-3.51691c1.93965,-1.57727 3.51691,0.36238 3.51691,0.36238c4.48351,5.51361 8.71313,13.5275 6.7077,20.72176c0.1418,1.27899 -0.96785,2.18133 -0.96785,2.18133l-0.05827,-0.03963c-0.11645,0.15159 -0.25225,0.29213 -0.40702,0.41799c-1.07124,0.8711 -2.64581,0.70886 -3.51691,-0.36238z" fill="#0046ff"></path><path d="M264.15215,185.17793c-1.93965,1.57727 -3.51691,-0.36238 -3.51691,-0.36238l-0.56754,-0.69794c-0.93276,-1.16159 -1.96947,-2.25562 -3.12823,-3.1919c-6.48804,-2.15059 -13.47853,1.3034 -20.05223,1.91769c-3.22289,0.30117 -6.54788,0.33611 -9.30768,-1.71261c-0.2708,-0.20103 -3.42972,-4.10913 -3.81952,-4.59106c-1.68847,-2.08761 -2.40326,-2.66075 -3.35589,-5.30584c-0.96712,-2.68532 -0.86913,-5.64483 -1.04448,-8.44805c0,0 -0.15608,-2.49512 2.33905,-2.6512c2.49512,-0.15608 2.6512,2.33905 2.6512,2.33905c0.14357,2.29517 -0.01435,4.88144 0.76539,7.0854c0.89691,2.53516 4.37319,7.62592 7.08493,8.28176c3.93105,0.95073 8.25206,-0.80704 12.07004,-1.46579c5.47296,-0.94431 9.68977,-1.71018 15.06387,0.16141c1.6792,1.31216 3.26005,2.77998 4.61285,4.42662l0.56754,0.69794c0,0 1.57727,1.93965 -0.36238,3.51691z" fill="#0046ff"></path></g></g></svg></svg></g></svg>